<?xml version="1.0" standalone="no"?>
<!DOCTYPE svg PUBLIC "-//W3C//DTD SVG 20010904//EN"
 "http://www.w3.org/TR/2001/REC-SVG-20010904/DTD/svg10.dtd">
<svg version="1.0" xmlns="http://www.w3.org/2000/svg"
 width="1553.000000pt" height="1553.000000pt" viewBox="0 0 1553.000000 1553.000000"
 preserveAspectRatio="xMidYMid meet">
<metadata>
Created by potrace 1.14, written by Peter Selinger 2001-2017
</metadata>
<g transform="translate(0.000000,1553.000000) scale(0.100000,-0.100000)"
fill="#000000" stroke="none">
<path d="M3742 12097 c6 -12 14 -24 17 -27 4 -3 26 -39 51 -80 24 -41 47 -76
52 -78 4 -2 8 -8 8 -12 0 -9 70 -124 90 -147 5 -7 10 -15 10 -17 0 -3 36 -62
80 -132 44 -69 80 -130 80 -135 0 -5 3 -9 8 -9 4 0 12 -9 17 -19 8 -17 45 -78
90 -150 6 -9 32 -52 60 -96 27 -44 53 -81 57 -83 5 -2 8 -7 8 -12 0 -7 468
-764 544 -880 29 -44 197 -314 211 -338 12 -21 166 -267 210 -337 52 -81 169
-268 180 -288 6 -9 75 -121 155 -247 80 -127 150 -238 155 -248 6 -9 51 -81
100 -160 125 -199 126 -201 163 -262 35 -59 408 -655 441 -705 62 -94 361
-579 361 -585 0 -4 7 -13 15 -20 16 -13 21 -5 -265 -411 -63 -90 -136 -193
-161 -229 -77 -110 -356 -506 -478 -678 -64 -90 -123 -174 -131 -186 -28 -41
-154 -221 -162 -231 -5 -5 -56 -77 -114 -160 -150 -214 -482 -686 -500 -710
-8 -11 -50 -72 -94 -135 -45 -63 -86 -122 -93 -130 -7 -9 -32 -45 -56 -80 -49
-71 -260 -371 -325 -462 -23 -31 -47 -64 -54 -75 -7 -10 -57 -82 -112 -160
-55 -78 -100 -145 -100 -148 0 -3 180 -5 400 -5 l400 0 42 59 c51 71 212 298
249 349 14 21 41 60 61 87 38 55 558 787 735 1035 60 85 162 229 226 320 64
91 120 170 125 175 4 6 28 39 52 75 25 36 48 67 51 70 3 3 25 34 49 70 24 36
48 70 52 75 8 9 166 230 208 292 87 125 155 219 162 221 4 2 8 8 8 14 0 8 35
60 65 95 6 6 43 59 84 117 l74 105 220 -352 c121 -194 234 -374 252 -402 17
-27 89 -142 160 -255 70 -113 142 -227 160 -255 99 -155 171 -271 178 -285 4
-8 15 -27 25 -42 20 -32 246 -390 282 -448 14 -22 72 -115 130 -207 58 -91
112 -178 120 -192 8 -14 18 -28 21 -31 3 -3 8 -12 12 -20 7 -16 221 -358 234
-375 5 -5 48 -74 97 -153 l88 -142 1259 0 c692 0 1259 3 1259 6 0 7 -241 396
-250 404 -4 3 -10 12 -14 20 -10 22 -23 42 -106 173 -41 65 -79 125 -85 135
-5 9 -20 31 -32 49 -13 17 -23 34 -23 37 0 2 -40 68 -90 146 -49 78 -90 146
-90 151 0 5 -4 9 -8 9 -5 0 -14 11 -20 25 -6 14 -31 55 -55 92 -25 38 -84 131
-131 208 -48 77 -164 262 -257 410 -93 149 -188 301 -211 338 -24 38 -64 102
-90 143 -27 41 -48 78 -48 83 0 5 -3 11 -7 13 -5 2 -56 80 -114 173 -59 94
-285 456 -504 805 -218 349 -407 651 -420 670 -73 113 -605 968 -605 975 0 4
94 140 209 303 114 164 379 540 588 837 209 297 395 562 414 590 19 27 40 56
47 63 6 7 17 23 23 35 7 11 16 26 21 31 5 6 66 92 135 191 116 165 361 513
489 695 29 41 79 113 110 160 32 47 61 87 64 90 3 3 26 34 51 70 25 36 105
151 179 255 144 204 332 474 343 491 4 8 -110 11 -396 12 l-403 1 -165 -235
c-261 -373 -398 -568 -407 -579 -4 -5 -22 -31 -39 -57 -41 -61 -77 -112 -83
-118 -3 -3 -23 -32 -45 -65 -22 -33 -43 -62 -46 -65 -3 -3 -25 -34 -49 -70
-24 -36 -50 -71 -57 -78 -7 -7 -13 -17 -13 -22 0 -5 -6 -15 -13 -22 -7 -7 -28
-35 -47 -63 -19 -27 -37 -51 -42 -53 -4 -2 -8 -8 -8 -13 0 -5 -19 -36 -42 -68
-24 -33 -49 -67 -56 -78 -7 -10 -82 -117 -167 -238 -85 -121 -160 -229 -167
-239 -7 -10 -26 -37 -43 -60 -16 -23 -43 -61 -60 -86 -16 -25 -34 -50 -40 -57
-5 -6 -25 -33 -43 -60 -18 -26 -71 -102 -117 -168 -47 -66 -90 -128 -97 -139
-7 -10 -26 -37 -43 -60 -16 -22 -43 -61 -60 -86 -17 -25 -75 -108 -130 -185
-54 -77 -115 -164 -134 -192 -20 -29 -38 -53 -41 -53 -3 0 -18 21 -33 48 -15
26 -45 74 -67 107 -21 33 -45 71 -53 85 -8 14 -226 364 -485 779 -260 415
-472 758 -472 762 0 5 -3 9 -8 9 -4 0 -12 9 -17 21 -8 17 -252 410 -425 684
-25 39 -50 80 -57 91 -6 10 -71 115 -145 232 -73 117 -142 227 -153 245 -11
19 -36 59 -55 89 l-35 56 -1262 0 -1263 0 12 -21z m2161 -657 c8 -8 247 -388
532 -845 285 -456 532 -852 550 -880 40 -63 204 -326 226 -363 9 -15 55 -88
103 -162 47 -74 95 -151 106 -170 11 -19 39 -65 62 -103 24 -37 128 -203 232
-370 104 -166 199 -318 211 -337 13 -19 58 -91 100 -160 43 -69 92 -147 110
-175 17 -27 45 -71 61 -97 16 -27 43 -69 59 -95 36 -57 131 -210 160 -257 11
-18 191 -306 400 -639 209 -334 385 -615 390 -624 6 -10 141 -226 300 -480
160 -255 295 -471 300 -481 6 -9 48 -78 95 -152 47 -74 90 -143 95 -152 6 -10
98 -158 205 -328 107 -171 202 -323 211 -338 9 -15 60 -96 113 -180 53 -84 96
-155 96 -158 0 -2 -220 -4 -489 -4 l-489 0 -83 133 c-45 72 -87 141 -94 152
-10 18 -47 77 -110 175 -23 36 -193 308 -275 440 -59 95 -210 336 -275 440
-64 102 -295 473 -315 505 -26 43 -242 388 -275 440 -18 28 -106 168 -196 312
-90 144 -175 280 -189 302 -37 58 -123 199 -138 224 -25 44 -221 352 -230 362
-5 6 -11 15 -13 21 -2 6 -69 115 -149 242 -80 128 -192 308 -250 401 -58 92
-165 264 -239 382 -74 118 -155 247 -180 287 -25 40 -58 92 -72 115 -122 191
-169 269 -169 277 0 4 -3 10 -8 12 -6 2 -83 121 -117 180 -5 10 -39 64 -75
120 -36 57 -69 111 -75 121 -5 9 -91 146 -190 303 -99 157 -188 299 -197 315
-10 16 -26 42 -35 58 -10 16 -63 101 -118 188 -55 87 -101 163 -103 170 -2 7
-8 13 -13 13 -5 0 -9 5 -9 10 0 6 -27 51 -60 101 -33 50 -60 93 -60 96 0 5
-42 70 -91 143 -5 8 -15 25 -22 37 -7 13 -75 123 -152 245 -77 122 -143 227
-147 232 -4 8 140 11 483 11 421 0 490 -2 502 -15z"/>
</g>
</svg>
