<svg version="1.1" xmlns="http://www.w3.org/2000/svg" viewBox="0 0 249.476352058133 248.1808285239605" width="748.429056174399" height="744.5424855718816" filter="invert(93%) hue-rotate(180deg)">
  <!-- svg-source:excalidraw -->
  
  <defs>
    <style class="style-fonts">
      @font-face {
        font-family: "Virgil";
        src: url("https://excalidraw.com/Virgil.woff2");
      }
      @font-face {
        font-family: "Cascadia";
        src: url("https://excalidraw.com/Cascadia.woff2");
      }
    </style>
    
  </defs>
  <g stroke-linecap="round" transform="translate(53.60360121394672 88.84522019387013) rotate(44.67980838258452 34.01717929679819 72.45464248247833)"><path d="M15.49 2.96 L58.78 0.8 L61.6 3.09 L65.28 11.41 L65.28 124.21 L62.28 134.74 L55 144.78 L14.25 141.21 L9.75 139.2 L3.68 138.51 L0.3 9.6 L6.06 4.67 L17.46 0.59" stroke="none" stroke-width="0" fill="00000"></path><path d="M17.01 0 M17.01 0 C28.81 -2.58, 40.11 -1.97, 51.03 0 M17.01 0 C30.72 -1.58, 45.02 -1.76, 51.03 0 M51.03 0 C62.39 0.05, 66.37 2.97, 68.03 17.01 M51.03 0 C66.02 -1.13, 65.63 3.42, 68.03 17.01 M68.03 17.01 C67.38 48.24, 66.19 81.88, 68.03 127.9 M68.03 17.01 C70.46 59.5, 68.8 103.71, 68.03 127.9 M68.03 127.9 C65.85 135.69, 60.47 145.87, 51.03 144.91 M68.03 127.9 C70.57 136.31, 64.69 140.78, 51.03 144.91 M51.03 144.91 C43.1 142.1, 32.29 144.86, 17.01 144.91 M51.03 144.91 C40.68 144.05, 29.52 144.52, 17.01 144.91 M17.01 144.91 C5.65 148.21, -0.6 136.33, 0 127.9 M17.01 144.91 C3.67 147.34, 2.18 138.77, 0 127.9 M0 127.9 C-2.15 82.76, 2.61 42.71, 0 17.01 M0 127.9 C-2.08 95.73, -3.23 66.64, 0 17.01 M0 17.01 C0.7 6.56, 8.02 -3.26, 17.01 0 M0 17.01 C-1.09 4.68, 8.46 -3.2, 17.01 0" stroke="00000" stroke-width="4" fill="none"></path></g><g stroke-linecap="round" transform="translate(89.4972022341592 0.03579112338822199) rotate(134.51055520963857 34.01717929679819 125.7387128682825)"><path d="M20.77 0.54 L58.67 1.76 L62.1 6.1 L65.01 9.33 L64.67 230.95 L60.32 248.16 L56.24 247.77 L12.68 247.09 L6.87 250.39 L0.3 235.03 L-0.31 15.31 L7.1 2.98 L19.32 0.86" stroke="none" stroke-width="0" fill="00000"></path><path d="M17.01 0 M17.01 0 C29.01 -1.03, 47.02 1.68, 51.03 0 M17.01 0 C29.48 -1.13, 38.82 0.52, 51.03 0 M51.03 0 C60.7 -2.7, 71.22 4.69, 68.03 17.01 M51.03 0 C59.96 -2.25, 68.02 5.23, 68.03 17.01 M68.03 17.01 C66.2 85.76, 70.54 159.77, 68.03 234.47 M68.03 17.01 C68.87 98.57, 68.64 175.83, 68.03 234.47 M68.03 234.47 C66.14 246.76, 64.57 248.93, 51.03 251.48 M68.03 234.47 C70.36 241.68, 60.29 251.6, 51.03 251.48 M51.03 251.48 C39.43 250.95, 30.75 253.68, 17.01 251.48 M51.03 251.48 C43.27 251.7, 37.3 253.07, 17.01 251.48 M17.01 251.48 C5.06 248.57, -1.74 247.92, 0 234.47 M17.01 251.48 C7.85 251.01, 3.42 248.06, 0 234.47 M0 234.47 C4.22 159.48, 0.09 90.68, 0 17.01 M0 234.47 C-0.48 173.63, 1.29 114.14, 0 17.01 M0 17.01 C2.35 2.41, 4.72 -0.86, 17.01 0 M0 17.01 C2.79 2.47, 8.04 -1.52, 17.01 0" stroke="00000" stroke-width="4" fill="none"></path></g><g stroke-linecap="round" transform="translate(159.02193683063035 25.483970398384876) rotate(44.71067779177646 34.52002076911941 30.42115315280218)"><path d="M15.96 1.42 L57.88 0.39 L63.74 2.64 L69.96 9.25 L67.14 14.17 L70.05 49.93 L63.31 55.93 L58.61 59.81 L53.73 60.65 L12.58 60.55 L3.78 55.98 L-0.71 49.77 L1.88 13.24 L2.59 3.44 L7.75 2.06 L14.61 1.03" stroke="none" stroke-width="0" fill="00000"></path><path d="M15.21 0 M15.21 0 C29.07 1.55, 46.05 0.72, 53.83 0 M15.21 0 C28.59 0.6, 41.26 0.74, 53.83 0 M53.83 0 C64.37 -0.18, 67.71 4.78, 69.04 15.21 M53.83 0 C62.77 -0.73, 68.96 5.63, 69.04 15.21 M69.04 15.21 C70.41 24.8, 68.73 36.8, 69.04 45.63 M69.04 15.21 C68.12 24.32, 69.24 34.77, 69.04 45.63 M69.04 45.63 C67.58 55.56, 63.01 62.03, 53.83 60.84 M69.04 45.63 C70.79 56.26, 63.9 59.39, 53.83 60.84 M53.83 60.84 C38.66 62.34, 25.19 61.41, 15.21 60.84 M53.83 60.84 C45.48 60.47, 38.14 61.45, 15.21 60.84 M15.21 60.84 C5.78 61.86, -0.21 54.45, 0 45.63 M15.21 60.84 C3.25 60.37, -1.24 57.4, 0 45.63 M0 45.63 C0.44 37.65, 2.06 29.39, 0 15.21 M0 45.63 C-0.13 34.25, -0.28 22.16, 0 15.21 M0 15.21 C-0.18 3.3, 6.26 -0.16, 15.21 0 M0 15.21 C1.88 4.03, 6.22 -1.21, 15.21 0" stroke="00000" stroke-width="2" fill="none"></path></g><g stroke-linecap="round" transform="translate(137.5087248371541 59.39452282668504) rotate(44.71067779177646 33.914517440554164 18.527468053064634)"><path d="M0 0 L67.83 0 L67.83 37.05 L0 37.05" stroke="none" stroke-width="0" fill="00000"></path><path d="M0 0 C19.98 0, 39.95 0, 67.83 0 M0 0 C18.54 0, 37.08 0, 67.83 0 M67.83 0 C67.83 9.28, 67.83 18.55, 67.83 37.05 M67.83 0 C67.83 12.44, 67.83 24.87, 67.83 37.05 M67.83 37.05 C42.91 37.05, 17.98 37.05, 0 37.05 M67.83 37.05 C46.54 37.05, 25.26 37.05, 0 37.05 M0 37.05 C0 23.11, 0 9.16, 0 0 M0 37.05 C0 23.9, 0 10.75, 0 0" stroke="00000" stroke-width="4" fill="none"></path></g><g stroke-linecap="round"><g transform="translate(121.36576560769277 93.75765015504535) rotate(44.65748761496257 34.81476636833662 0.03700678063059115)"><path d="M0 0 C24.4 0.03, 48.8 0.05, 69.63 0.07 M0 0 C20.75 0.02, 41.49 0.04, 69.63 0.07" stroke="00000" stroke-width="1" fill="none"></path></g></g><mask></mask><g stroke-linecap="round"><g transform="translate(142.0750627061883 94.1223052363243) rotate(360.78611566373536 17.147697272234097 14.692005352793771)"><path d="M1.13 -0.2 C6.93 4.62, 28.6 24.19, 34.03 29.3 M0.26 -1.36 C5.99 3.62, 27.75 25.75, 33.19 30.74" stroke="00000" stroke-width="1" fill="none"></path></g></g><mask></mask></svg>