<?xml version="1.0" standalone="no"?>
<!DOCTYPE svg PUBLIC "-//W3C//DTD SVG 20010904//EN"
 "http://www.w3.org/TR/2001/REC-SVG-20010904/DTD/svg10.dtd">
<svg version="1.0" xmlns="http://www.w3.org/2000/svg"
 width="1553.000000pt" height="1553.000000pt" viewBox="0 0 1553.000000 1553.000000"
 preserveAspectRatio="xMidYMid meet">
<metadata>
Created by potrace 1.14, written by Peter Selinger 2001-2017
</metadata>
<g transform="translate(0.000000,1553.000000) scale(0.100000,-0.100000)"
fill="#000000" stroke="none">
<path d="M3742 12097 c6 -12 14 -24 17 -27 4 -3 26 -39 51 -80 24 -41 47 -76
52 -78 4 -2 8 -8 8 -12 0 -9 70 -124 90 -147 5 -7 10 -15 10 -17 0 -3 36 -62
80 -132 44 -69 80 -130 80 -135 0 -5 3 -9 8 -9 4 0 12 -9 17 -19 8 -17 45 -78
90 -150 6 -9 32 -52 60 -96 27 -44 53 -81 57 -83 5 -2 8 -7 8 -12 0 -7 468
-764 544 -880 29 -44 197 -314 211 -338 12 -21 166 -268 210 -337 39 -61 366
-583 380 -607 6 -9 30 -49 55 -88 25 -39 50 -79 55 -88 6 -9 51 -81 100 -160
124 -198 126 -201 163 -262 18 -30 124 -201 237 -380 404 -644 560 -895 564
-905 2 -5 9 -17 16 -25 14 -16 25 0 -265 -411 -63 -90 -136 -193 -161 -229
-77 -110 -356 -506 -478 -678 -64 -90 -123 -174 -131 -186 -28 -41 -154 -221
-162 -231 -5 -5 -56 -77 -114 -160 -150 -214 -482 -686 -500 -710 -8 -11 -50
-72 -95 -135 -44 -63 -87 -124 -95 -135 -8 -11 -49 -70 -92 -131 -42 -61 -85
-122 -95 -135 -22 -30 -202 -285 -225 -319 -9 -14 -21 -29 -25 -35 -21 -26
-207 -295 -207 -300 0 -3 180 -5 400 -5 l400 0 42 59 c51 71 212 298 249 349
71 102 86 123 693 977 148 209 309 436 358 505 48 69 91 130 96 135 4 6 28 39
52 75 25 36 48 67 51 70 3 3 25 34 49 70 24 36 48 70 52 75 8 9 169 235 208
292 55 79 226 320 235 330 5 6 43 59 84 117 l74 106 17 -28 c25 -40 736 -1177
775 -1237 92 -145 171 -271 178 -285 4 -8 15 -27 25 -42 14 -22 114 -180 282
-447 14 -22 41 -66 61 -98 139 -223 450 -720 456 -728 5 -5 48 -74 97 -153
l88 -142 1259 0 c692 0 1259 3 1259 6 0 7 -241 396 -250 404 -4 3 -10 12 -13
20 -8 17 -23 42 -115 186 -35 54 -69 108 -75 119 -7 11 -22 34 -34 52 -13 17
-23 35 -23 40 0 4 -14 26 -30 47 -17 22 -30 43 -30 46 0 4 -31 55 -70 114 -39
58 -70 108 -70 111 0 3 -24 42 -54 88 -29 45 -93 145 -140 222 -48 77 -164
262 -257 410 -93 149 -188 301 -211 338 -24 38 -69 109 -100 158 -32 49 -58
94 -58 99 0 6 -4 10 -10 10 -5 0 -10 4 -10 9 0 5 -47 83 -103 173 -57 89 -274
435 -482 768 -208 333 -392 628 -410 655 -115 179 -615 984 -615 990 0 4 94
140 209 303 114 164 379 540 588 837 209 297 395 562 414 590 19 27 40 56 47
63 6 7 17 23 23 35 7 11 16 26 21 31 5 6 65 90 132 186 67 96 194 276 281 400
151 215 224 319 269 385 12 17 23 32 26 35 3 3 19 25 35 50 17 25 57 83 91
130 124 173 519 737 537 766 4 8 -110 11 -396 12 l-403 1 -165 -235 c-261
-373 -398 -568 -407 -579 -4 -5 -22 -31 -39 -57 -41 -61 -77 -112 -83 -118 -3
-3 -23 -32 -45 -65 -22 -33 -43 -62 -46 -65 -3 -3 -25 -34 -49 -70 -24 -36
-50 -71 -57 -78 -7 -7 -13 -17 -13 -22 0 -5 -6 -15 -13 -22 -7 -7 -28 -35 -47
-63 -19 -27 -37 -51 -42 -53 -4 -2 -8 -8 -8 -13 0 -5 -19 -36 -42 -68 -24 -33
-49 -68 -57 -79 -113 -161 -323 -461 -333 -476 -7 -10 -26 -37 -43 -60 -16
-23 -43 -61 -60 -86 -16 -25 -34 -50 -40 -57 -5 -6 -25 -33 -43 -60 -18 -26
-71 -102 -117 -168 -47 -66 -89 -127 -95 -135 -5 -8 -68 -98 -140 -200 -72
-102 -136 -193 -143 -204 -6 -10 -23 -33 -37 -50 -14 -18 -38 -54 -54 -79 -17
-26 -32 -47 -35 -47 -4 0 -19 21 -34 48 -15 26 -45 74 -67 107 -21 33 -45 71
-53 85 -8 14 -226 364 -485 779 -260 415 -472 758 -472 762 0 5 -3 9 -8 9 -4
0 -12 9 -17 21 -8 17 -252 410 -425 684 -25 39 -50 80 -57 91 -6 10 -71 115
-145 232 -73 117 -142 227 -153 245 -11 19 -36 59 -55 89 l-35 56 -1262 0
-1263 0 12 -21z m2161 -657 c8 -8 247 -388 532 -845 285 -456 532 -852 550
-880 30 -46 191 -305 218 -349 39 -64 108 -173 117 -183 5 -7 10 -15 10 -18 0
-3 19 -36 43 -73 24 -37 63 -98 87 -137 24 -38 58 -92 75 -120 17 -27 107
-171 200 -320 92 -148 178 -286 190 -305 13 -19 58 -91 100 -160 43 -69 92
-147 110 -175 17 -27 45 -71 61 -97 16 -27 43 -69 59 -95 30 -48 122 -195 160
-257 11 -18 79 -126 150 -240 72 -113 137 -218 145 -231 14 -23 367 -587 400
-639 13 -21 35 -57 101 -165 9 -14 143 -228 298 -475 154 -247 281 -453 281
-458 0 -4 5 -8 10 -8 6 0 10 -4 10 -9 0 -5 39 -72 88 -149 48 -76 92 -147 99
-158 6 -10 98 -157 205 -327 106 -169 200 -320 209 -335 9 -15 60 -96 113
-180 53 -84 96 -155 96 -158 0 -2 -220 -4 -489 -4 l-489 0 -123 198 c-67 108
-137 220 -154 247 -36 56 -215 341 -285 455 -59 95 -210 336 -275 440 -64 102
-295 473 -315 505 -26 43 -242 388 -275 440 -18 28 -106 168 -196 312 -90 144
-175 280 -189 302 -14 22 -47 76 -75 121 -61 100 -58 94 -179 287 -54 87 -135
217 -180 288 -45 72 -84 132 -88 133 -5 2 -8 7 -8 12 0 5 -33 62 -74 127 -41
65 -119 190 -174 278 -55 88 -163 261 -241 385 -77 124 -160 256 -184 293 -23
38 -68 109 -99 158 -32 49 -58 94 -58 99 0 6 -4 10 -10 10 -5 0 -10 5 -10 11
0 6 -13 30 -30 54 -16 24 -30 48 -30 53 0 6 -3 12 -8 14 -6 3 -98 144 -112
173 -3 5 -22 36 -42 68 -21 31 -38 62 -38 67 0 6 -4 10 -8 10 -5 0 -14 10 -20
23 -16 31 -34 59 -237 383 -99 157 -188 299 -197 315 -10 16 -26 42 -35 58
-10 16 -63 101 -118 188 -55 87 -101 163 -103 170 -2 7 -8 13 -13 13 -5 0 -9
5 -9 10 0 6 -27 51 -60 101 -33 50 -60 93 -60 96 0 5 -42 70 -91 143 -5 8 -15
25 -22 37 -7 13 -75 123 -152 245 -77 122 -143 227 -147 232 -4 8 140 11 483
11 421 0 490 -2 502 -15z"/>
</g>
</svg>
